<mxfile host="app.diagrams.net" modified="2024-04-22T16:21:48.632Z" agent="Mozilla/5.0 (Windows NT 10.0; Win64; x64) AppleWebKit/537.36 (KHTML, like Gecko) Chrome/124.0.0.0 Safari/537.36" etag="kKugcqPX-GhPi9c10NRD" version="24.2.7" type="device">
  <diagram name="Seite-1" id="OdGiaslkj6W8p0YJhAm8">
    <mxGraphModel dx="1313" dy="705" grid="1" gridSize="10" guides="1" tooltips="1" connect="1" arrows="1" fold="1" page="1" pageScale="1" pageWidth="827" pageHeight="1169" math="0" shadow="0">
      <root>
        <mxCell id="0" />
        <mxCell id="1" parent="0" />
        <mxCell id="0xal0aKIqLaKwU2j3F8N-1" value="" style="ellipse;html=1;shape=startState;fillColor=#000000;strokeColor=#ff0000;" parent="1" vertex="1">
          <mxGeometry x="70" y="30" width="30" height="30" as="geometry" />
        </mxCell>
        <mxCell id="0xal0aKIqLaKwU2j3F8N-2" value="" style="edgeStyle=orthogonalEdgeStyle;html=1;verticalAlign=bottom;endArrow=open;endSize=8;strokeColor=#ff0000;rounded=0;" parent="1" source="0xal0aKIqLaKwU2j3F8N-1" edge="1">
          <mxGeometry relative="1" as="geometry">
            <mxPoint x="85" y="120" as="targetPoint" />
          </mxGeometry>
        </mxCell>
        <mxCell id="0xal0aKIqLaKwU2j3F8N-3" value="Erstellung Fachkonzept (RE)" style="rounded=1;whiteSpace=wrap;html=1;arcSize=40;fontColor=#000000;fillColor=#ffffc0;strokeColor=#ff0000;" parent="1" vertex="1">
          <mxGeometry x="25" y="120" width="120" height="40" as="geometry" />
        </mxCell>
        <mxCell id="0xal0aKIqLaKwU2j3F8N-4" value="" style="edgeStyle=orthogonalEdgeStyle;html=1;verticalAlign=bottom;endArrow=open;endSize=8;strokeColor=#000000;rounded=0;" parent="1" source="0xal0aKIqLaKwU2j3F8N-3" edge="1">
          <mxGeometry relative="1" as="geometry">
            <mxPoint x="85" y="220" as="targetPoint" />
          </mxGeometry>
        </mxCell>
        <mxCell id="0xal0aKIqLaKwU2j3F8N-5" value="Eingereichte Dokumente auf Unternehmensvorgaben Ã¼berarbeiten (PMO)" style="rounded=1;whiteSpace=wrap;html=1;arcSize=40;fontColor=#000000;fillColor=#ffffc0;strokeColor=#ff0000;" parent="1" vertex="1">
          <mxGeometry x="25" y="220" width="120" height="70" as="geometry" />
        </mxCell>
        <mxCell id="0xal0aKIqLaKwU2j3F8N-6" value="" style="edgeStyle=orthogonalEdgeStyle;html=1;verticalAlign=bottom;endArrow=open;endSize=8;strokeColor=#000000;rounded=0;" parent="1" source="0xal0aKIqLaKwU2j3F8N-5" edge="1">
          <mxGeometry relative="1" as="geometry">
            <mxPoint x="85" y="320" as="targetPoint" />
          </mxGeometry>
        </mxCell>
        <mxCell id="0xal0aKIqLaKwU2j3F8N-11" value="" style="endArrow=open;endFill=1;endSize=12;html=1;rounded=0;entryX=0.332;entryY=-0.006;entryDx=0;entryDy=0;entryPerimeter=0;" parent="1" target="0xal0aKIqLaKwU2j3F8N-14" edge="1">
          <mxGeometry width="160" relative="1" as="geometry">
            <mxPoint x="40" y="320" as="sourcePoint" />
            <mxPoint x="32" y="380" as="targetPoint" />
          </mxGeometry>
        </mxCell>
        <mxCell id="0xal0aKIqLaKwU2j3F8N-12" value="" style="endArrow=open;endFill=1;endSize=12;html=1;rounded=0;" parent="1" edge="1">
          <mxGeometry width="160" relative="1" as="geometry">
            <mxPoint x="200" y="320" as="sourcePoint" />
            <mxPoint x="200" y="380" as="targetPoint" />
          </mxGeometry>
        </mxCell>
        <mxCell id="0xal0aKIqLaKwU2j3F8N-13" value="" style="endArrow=open;endFill=1;endSize=12;html=1;rounded=0;" parent="1" edge="1">
          <mxGeometry width="160" relative="1" as="geometry">
            <mxPoint x="380" y="320" as="sourcePoint" />
            <mxPoint x="380" y="380" as="targetPoint" />
          </mxGeometry>
        </mxCell>
        <mxCell id="0xal0aKIqLaKwU2j3F8N-14" value="Review Kunde" style="rounded=1;whiteSpace=wrap;html=1;arcSize=40;fontColor=#000000;fillColor=#ffffc0;strokeColor=#ff0000;" parent="1" vertex="1">
          <mxGeometry y="380" width="120" height="40" as="geometry" />
        </mxCell>
        <mxCell id="0xal0aKIqLaKwU2j3F8N-15" value="" style="edgeStyle=orthogonalEdgeStyle;html=1;verticalAlign=bottom;endArrow=open;endSize=8;strokeColor=#000000;rounded=0;" parent="1" source="0xal0aKIqLaKwU2j3F8N-14" edge="1">
          <mxGeometry relative="1" as="geometry">
            <mxPoint x="60" y="480" as="targetPoint" />
          </mxGeometry>
        </mxCell>
        <mxCell id="0xal0aKIqLaKwU2j3F8N-17" value="Review externer Gutachter" style="rounded=1;whiteSpace=wrap;html=1;arcSize=40;fontColor=#000000;fillColor=#ffffc0;strokeColor=#ff0000;" parent="1" vertex="1">
          <mxGeometry x="140" y="380" width="120" height="40" as="geometry" />
        </mxCell>
        <mxCell id="0xal0aKIqLaKwU2j3F8N-18" value="" style="edgeStyle=orthogonalEdgeStyle;html=1;verticalAlign=bottom;endArrow=open;endSize=8;strokeColor=#000000;rounded=0;" parent="1" source="0xal0aKIqLaKwU2j3F8N-17" edge="1">
          <mxGeometry relative="1" as="geometry">
            <mxPoint x="200" y="480" as="targetPoint" />
          </mxGeometry>
        </mxCell>
        <mxCell id="0xal0aKIqLaKwU2j3F8N-19" value="Review IT-Leiter/in" style="rounded=1;whiteSpace=wrap;html=1;arcSize=40;fontColor=#000000;fillColor=#ffffc0;strokeColor=#ff0000;" parent="1" vertex="1">
          <mxGeometry x="280" y="380" width="120" height="40" as="geometry" />
        </mxCell>
        <mxCell id="0xal0aKIqLaKwU2j3F8N-20" value="" style="edgeStyle=orthogonalEdgeStyle;html=1;verticalAlign=bottom;endArrow=open;endSize=8;strokeColor=#000000;rounded=0;" parent="1" source="0xal0aKIqLaKwU2j3F8N-19" edge="1">
          <mxGeometry relative="1" as="geometry">
            <mxPoint x="340" y="480" as="targetPoint" />
          </mxGeometry>
        </mxCell>
        <mxCell id="0xal0aKIqLaKwU2j3F8N-22" value="" style="endArrow=open;endFill=1;endSize=12;html=1;rounded=0;" parent="1" edge="1">
          <mxGeometry width="160" relative="1" as="geometry">
            <mxPoint x="200" y="480" as="sourcePoint" />
            <mxPoint x="200" y="530" as="targetPoint" />
          </mxGeometry>
        </mxCell>
        <mxCell id="0xal0aKIqLaKwU2j3F8N-23" value="Sichtung der Reviews&lt;div&gt;-&amp;gt; Generierung der Gesamtbewertung (PMO)&lt;/div&gt;" style="rounded=1;whiteSpace=wrap;html=1;arcSize=40;fontColor=#000000;fillColor=#ffffc0;strokeColor=#ff0000;" parent="1" vertex="1">
          <mxGeometry x="130" y="530" width="140" height="40" as="geometry" />
        </mxCell>
        <mxCell id="0xal0aKIqLaKwU2j3F8N-24" value="" style="edgeStyle=orthogonalEdgeStyle;html=1;verticalAlign=bottom;endArrow=open;endSize=8;strokeColor=#000000;rounded=0;" parent="1" source="0xal0aKIqLaKwU2j3F8N-23" edge="1">
          <mxGeometry relative="1" as="geometry">
            <mxPoint x="200" y="630" as="targetPoint" />
          </mxGeometry>
        </mxCell>
        <mxCell id="0xal0aKIqLaKwU2j3F8N-25" value="Vorbereitung der Abnahme (PMO)" style="rounded=1;whiteSpace=wrap;html=1;arcSize=40;fontColor=#000000;fillColor=#ffffc0;strokeColor=#ff0000;" parent="1" vertex="1">
          <mxGeometry x="140" y="750" width="120" height="40" as="geometry" />
        </mxCell>
        <mxCell id="0xal0aKIqLaKwU2j3F8N-26" value="" style="edgeStyle=orthogonalEdgeStyle;html=1;verticalAlign=bottom;endArrow=open;endSize=8;strokeColor=#000000;rounded=0;" parent="1" source="0xal0aKIqLaKwU2j3F8N-25" edge="1">
          <mxGeometry relative="1" as="geometry">
            <mxPoint x="200" y="850" as="targetPoint" />
          </mxGeometry>
        </mxCell>
        <mxCell id="0xal0aKIqLaKwU2j3F8N-27" value="" style="rhombus;whiteSpace=wrap;html=1;" parent="1" vertex="1">
          <mxGeometry x="160" y="630" width="80" height="60" as="geometry" />
        </mxCell>
        <mxCell id="0xal0aKIqLaKwU2j3F8N-29" value="keine Fehler entdeckt" style="text;html=1;align=center;verticalAlign=middle;whiteSpace=wrap;rounded=0;" parent="1" vertex="1">
          <mxGeometry x="200" y="690" width="70" height="30" as="geometry" />
        </mxCell>
        <mxCell id="0xal0aKIqLaKwU2j3F8N-31" value="Fehler entdeckt" style="text;html=1;align=center;verticalAlign=middle;whiteSpace=wrap;rounded=0;" parent="1" vertex="1">
          <mxGeometry x="240" y="630" width="100" height="30" as="geometry" />
        </mxCell>
        <mxCell id="0xal0aKIqLaKwU2j3F8N-32" value="" style="rhombus;whiteSpace=wrap;html=1;" parent="1" vertex="1">
          <mxGeometry x="240" y="230" width="80" height="50" as="geometry" />
        </mxCell>
        <mxCell id="0xal0aKIqLaKwU2j3F8N-34" value="" style="endArrow=open;endFill=1;endSize=12;html=1;rounded=0;exitX=0.5;exitY=1;exitDx=0;exitDy=0;" parent="1" source="0xal0aKIqLaKwU2j3F8N-32" edge="1">
          <mxGeometry width="160" relative="1" as="geometry">
            <mxPoint x="410" y="300" as="sourcePoint" />
            <mxPoint x="280" y="320" as="targetPoint" />
          </mxGeometry>
        </mxCell>
        <mxCell id="0xal0aKIqLaKwU2j3F8N-35" value="" style="endArrow=open;endFill=1;endSize=12;html=1;rounded=0;entryX=0.5;entryY=0;entryDx=0;entryDy=0;exitX=0.5;exitY=1;exitDx=0;exitDy=0;" parent="1" source="0xal0aKIqLaKwU2j3F8N-27" target="0xal0aKIqLaKwU2j3F8N-25" edge="1">
          <mxGeometry width="160" relative="1" as="geometry">
            <mxPoint x="160" y="680" as="sourcePoint" />
            <mxPoint x="320" y="680" as="targetPoint" />
          </mxGeometry>
        </mxCell>
        <mxCell id="0xal0aKIqLaKwU2j3F8N-36" value="" style="endArrow=open;endFill=1;endSize=12;html=1;rounded=0;entryX=0.5;entryY=1;entryDx=0;entryDy=0;" parent="1" target="0xal0aKIqLaKwU2j3F8N-41" edge="1">
          <mxGeometry width="160" relative="1" as="geometry">
            <mxPoint x="400" y="280" as="sourcePoint" />
            <mxPoint x="320" y="260" as="targetPoint" />
          </mxGeometry>
        </mxCell>
        <mxCell id="0xal0aKIqLaKwU2j3F8N-38" value="" style="endArrow=none;html=1;rounded=0;" parent="1" edge="1">
          <mxGeometry width="50" height="50" relative="1" as="geometry">
            <mxPoint x="480" y="280" as="sourcePoint" />
            <mxPoint x="400" y="280" as="targetPoint" />
          </mxGeometry>
        </mxCell>
        <mxCell id="0xal0aKIqLaKwU2j3F8N-39" value="" style="endArrow=none;html=1;rounded=0;exitX=0.5;exitY=0;exitDx=0;exitDy=0;" parent="1" source="3QNXdqWSVSX8dj4BMd4Q-1" edge="1">
          <mxGeometry width="50" height="50" relative="1" as="geometry">
            <mxPoint x="480" y="660" as="sourcePoint" />
            <mxPoint x="480" y="280" as="targetPoint" />
          </mxGeometry>
        </mxCell>
        <mxCell id="0xal0aKIqLaKwU2j3F8N-40" value="leichter Fehler" style="text;html=1;align=center;verticalAlign=middle;whiteSpace=wrap;rounded=0;" parent="1" vertex="1">
          <mxGeometry x="280" y="280" width="60" height="30" as="geometry" />
        </mxCell>
        <mxCell id="0xal0aKIqLaKwU2j3F8N-41" value="Ãberarbeitung des Fachkonzepts (RE)" style="rounded=1;whiteSpace=wrap;html=1;arcSize=40;fontColor=#000000;fillColor=#ffffc0;strokeColor=#ff0000;" parent="1" vertex="1">
          <mxGeometry x="340" y="190" width="120" height="40" as="geometry" />
        </mxCell>
        <mxCell id="0xal0aKIqLaKwU2j3F8N-42" value="" style="edgeStyle=orthogonalEdgeStyle;html=1;verticalAlign=bottom;endArrow=open;endSize=8;strokeColor=#000000;rounded=0;entryX=0.5;entryY=0;entryDx=0;entryDy=0;exitX=0.5;exitY=0;exitDx=0;exitDy=0;" parent="1" source="0xal0aKIqLaKwU2j3F8N-41" target="0xal0aKIqLaKwU2j3F8N-32" edge="1">
          <mxGeometry relative="1" as="geometry">
            <mxPoint x="350.0000000000001" y="160" as="targetPoint" />
            <mxPoint x="410.0000000000001" y="190" as="sourcePoint" />
            <Array as="points">
              <mxPoint x="400" y="130" />
              <mxPoint x="280" y="130" />
            </Array>
          </mxGeometry>
        </mxCell>
        <mxCell id="0xal0aKIqLaKwU2j3F8N-43" value="" style="endArrow=open;endFill=1;endSize=12;html=1;rounded=0;entryX=1;entryY=0.5;entryDx=0;entryDy=0;exitX=0;exitY=0.5;exitDx=0;exitDy=0;" parent="1" source="0xal0aKIqLaKwU2j3F8N-32" target="0xal0aKIqLaKwU2j3F8N-5" edge="1">
          <mxGeometry width="160" relative="1" as="geometry">
            <mxPoint x="160" y="140" as="sourcePoint" />
            <mxPoint x="160" y="80" as="targetPoint" />
          </mxGeometry>
        </mxCell>
        <mxCell id="0xal0aKIqLaKwU2j3F8N-45" value="schwerwiegender Fehler" style="text;html=1;align=center;verticalAlign=middle;whiteSpace=wrap;rounded=0;" parent="1" vertex="1">
          <mxGeometry x="190" y="220" width="60" height="30" as="geometry" />
        </mxCell>
        <mxCell id="0xal0aKIqLaKwU2j3F8N-47" value="" style="endArrow=none;html=1;rounded=0;" parent="1" edge="1">
          <mxGeometry width="50" height="50" relative="1" as="geometry">
            <mxPoint x="60" y="480" as="sourcePoint" />
            <mxPoint x="340" y="480" as="targetPoint" />
          </mxGeometry>
        </mxCell>
        <mxCell id="0xal0aKIqLaKwU2j3F8N-48" value="" style="endArrow=none;html=1;rounded=0;" parent="1" edge="1">
          <mxGeometry width="50" height="50" relative="1" as="geometry">
            <mxPoint x="40" y="320" as="sourcePoint" />
            <mxPoint x="380" y="320" as="targetPoint" />
          </mxGeometry>
        </mxCell>
        <mxCell id="0xal0aKIqLaKwU2j3F8N-49" value="Sendung des &quot;Letter of Acceptance&quot; an Stakeholder" style="rounded=1;whiteSpace=wrap;html=1;arcSize=40;fontColor=#000000;fillColor=#ffffc0;strokeColor=#ff0000;" parent="1" vertex="1">
          <mxGeometry x="140" y="850" width="120" height="40" as="geometry" />
        </mxCell>
        <mxCell id="0xal0aKIqLaKwU2j3F8N-50" value="" style="edgeStyle=orthogonalEdgeStyle;html=1;verticalAlign=bottom;endArrow=open;endSize=8;strokeColor=#000000;rounded=0;" parent="1" source="0xal0aKIqLaKwU2j3F8N-49" edge="1">
          <mxGeometry relative="1" as="geometry">
            <mxPoint x="200" y="950" as="targetPoint" />
          </mxGeometry>
        </mxCell>
        <mxCell id="0xal0aKIqLaKwU2j3F8N-51" value="Unterschreibung der &quot;Letter of Acceptance&quot; des 1. Stakeholders" style="rounded=1;whiteSpace=wrap;html=1;arcSize=40;fontColor=#000000;fillColor=#ffffc0;strokeColor=#ff0000;" parent="1" vertex="1">
          <mxGeometry x="20" y="1010" width="120" height="40" as="geometry" />
        </mxCell>
        <mxCell id="0xal0aKIqLaKwU2j3F8N-52" value="" style="edgeStyle=orthogonalEdgeStyle;html=1;verticalAlign=bottom;endArrow=open;endSize=8;strokeColor=#000000;rounded=0;" parent="1" source="0xal0aKIqLaKwU2j3F8N-51" edge="1">
          <mxGeometry relative="1" as="geometry">
            <mxPoint x="80" y="1110" as="targetPoint" />
          </mxGeometry>
        </mxCell>
        <mxCell id="0xal0aKIqLaKwU2j3F8N-53" value="Unterschreibung der &quot;Letter of Acceptance&quot; des 2. Stakeholders" style="rounded=1;whiteSpace=wrap;html=1;arcSize=40;fontColor=#000000;fillColor=#ffffc0;strokeColor=#ff0000;" parent="1" vertex="1">
          <mxGeometry x="140" y="1010" width="120" height="40" as="geometry" />
        </mxCell>
        <mxCell id="0xal0aKIqLaKwU2j3F8N-54" value="" style="edgeStyle=orthogonalEdgeStyle;html=1;verticalAlign=bottom;endArrow=open;endSize=8;strokeColor=#000000;rounded=0;" parent="1" source="0xal0aKIqLaKwU2j3F8N-53" edge="1">
          <mxGeometry relative="1" as="geometry">
            <mxPoint x="200" y="1110" as="targetPoint" />
          </mxGeometry>
        </mxCell>
        <mxCell id="0xal0aKIqLaKwU2j3F8N-55" value="Unterschreibung der &quot;Letter of Acceptance&quot; des n. Stakeholders" style="rounded=1;whiteSpace=wrap;html=1;arcSize=40;fontColor=#000000;fillColor=#ffffc0;strokeColor=#ff0000;" parent="1" vertex="1">
          <mxGeometry x="260" y="1010" width="120" height="40" as="geometry" />
        </mxCell>
        <mxCell id="0xal0aKIqLaKwU2j3F8N-56" value="" style="edgeStyle=orthogonalEdgeStyle;html=1;verticalAlign=bottom;endArrow=open;endSize=8;strokeColor=#000000;rounded=0;" parent="1" source="0xal0aKIqLaKwU2j3F8N-55" edge="1">
          <mxGeometry relative="1" as="geometry">
            <mxPoint x="320" y="1110" as="targetPoint" />
          </mxGeometry>
        </mxCell>
        <mxCell id="0xal0aKIqLaKwU2j3F8N-57" value="" style="endArrow=none;html=1;rounded=0;" parent="1" edge="1">
          <mxGeometry width="50" height="50" relative="1" as="geometry">
            <mxPoint x="80" y="950" as="sourcePoint" />
            <mxPoint x="320" y="950" as="targetPoint" />
          </mxGeometry>
        </mxCell>
        <mxCell id="0xal0aKIqLaKwU2j3F8N-58" value="" style="endArrow=open;endFill=1;endSize=12;html=1;rounded=0;entryX=0.5;entryY=0;entryDx=0;entryDy=0;" parent="1" target="0xal0aKIqLaKwU2j3F8N-55" edge="1">
          <mxGeometry width="160" relative="1" as="geometry">
            <mxPoint x="320" y="950" as="sourcePoint" />
            <mxPoint x="310" y="990" as="targetPoint" />
          </mxGeometry>
        </mxCell>
        <mxCell id="0xal0aKIqLaKwU2j3F8N-59" value="" style="endArrow=open;endFill=1;endSize=12;html=1;rounded=0;entryX=0.5;entryY=0;entryDx=0;entryDy=0;" parent="1" target="0xal0aKIqLaKwU2j3F8N-53" edge="1">
          <mxGeometry width="160" relative="1" as="geometry">
            <mxPoint x="200" y="950" as="sourcePoint" />
            <mxPoint x="310" y="990" as="targetPoint" />
          </mxGeometry>
        </mxCell>
        <mxCell id="0xal0aKIqLaKwU2j3F8N-60" value="" style="endArrow=open;endFill=1;endSize=12;html=1;rounded=0;entryX=0.5;entryY=0;entryDx=0;entryDy=0;" parent="1" target="0xal0aKIqLaKwU2j3F8N-51" edge="1">
          <mxGeometry width="160" relative="1" as="geometry">
            <mxPoint x="80" y="950" as="sourcePoint" />
            <mxPoint x="310" y="990" as="targetPoint" />
          </mxGeometry>
        </mxCell>
        <mxCell id="0xal0aKIqLaKwU2j3F8N-61" value="" style="endArrow=none;html=1;rounded=0;" parent="1" edge="1">
          <mxGeometry width="50" height="50" relative="1" as="geometry">
            <mxPoint x="80" y="1110" as="sourcePoint" />
            <mxPoint x="320" y="1110" as="targetPoint" />
          </mxGeometry>
        </mxCell>
        <mxCell id="0xal0aKIqLaKwU2j3F8N-64" value="Ãbergabe Fachkonzept an Software-Architekten" style="rounded=1;whiteSpace=wrap;html=1;arcSize=40;fontColor=#000000;fillColor=#ffffc0;strokeColor=#ff0000;" parent="1" vertex="1">
          <mxGeometry x="414" y="1080" width="120" height="40" as="geometry" />
        </mxCell>
        <mxCell id="0xal0aKIqLaKwU2j3F8N-65" value="" style="edgeStyle=orthogonalEdgeStyle;html=1;verticalAlign=bottom;endArrow=open;endSize=8;strokeColor=#000000;rounded=0;entryX=0;entryY=0.5;entryDx=0;entryDy=0;" parent="1" source="0xal0aKIqLaKwU2j3F8N-64" edge="1" target="0xal0aKIqLaKwU2j3F8N-66">
          <mxGeometry relative="1" as="geometry">
            <mxPoint x="200" y="1260" as="targetPoint" />
          </mxGeometry>
        </mxCell>
        <mxCell id="0xal0aKIqLaKwU2j3F8N-66" value="" style="ellipse;html=1;shape=endState;fillColor=#000000;strokeColor=#ff0000;" parent="1" vertex="1">
          <mxGeometry x="670" y="1085" width="30" height="30" as="geometry" />
        </mxCell>
        <mxCell id="3QNXdqWSVSX8dj4BMd4Q-1" value="" style="rhombus;whiteSpace=wrap;html=1;" parent="1" vertex="1">
          <mxGeometry x="440" y="630" width="80" height="60" as="geometry" />
        </mxCell>
        <mxCell id="3QNXdqWSVSX8dj4BMd4Q-4" value="Nicht Zeitkritisch" style="text;html=1;align=center;verticalAlign=middle;whiteSpace=wrap;rounded=0;" parent="1" vertex="1">
          <mxGeometry x="480" y="600" width="60" height="30" as="geometry" />
        </mxCell>
        <mxCell id="3QNXdqWSVSX8dj4BMd4Q-5" value="" style="endArrow=open;endFill=1;endSize=12;html=1;rounded=0;entryX=1;entryY=0.5;entryDx=0;entryDy=0;" parent="1" target="0xal0aKIqLaKwU2j3F8N-25" edge="1">
          <mxGeometry width="160" relative="1" as="geometry">
            <mxPoint x="480" y="770" as="sourcePoint" />
            <mxPoint x="460" y="720" as="targetPoint" />
          </mxGeometry>
        </mxCell>
        <mxCell id="3QNXdqWSVSX8dj4BMd4Q-6" value="" style="endArrow=none;html=1;rounded=0;entryX=0.5;entryY=1;entryDx=0;entryDy=0;" parent="1" target="3QNXdqWSVSX8dj4BMd4Q-1" edge="1">
          <mxGeometry width="50" height="50" relative="1" as="geometry">
            <mxPoint x="480" y="770" as="sourcePoint" />
            <mxPoint x="410" y="690" as="targetPoint" />
          </mxGeometry>
        </mxCell>
        <mxCell id="3QNXdqWSVSX8dj4BMd4Q-7" value="Zeitkritisch&lt;div&gt;Abnahme unter Vorbehalt&lt;/div&gt;" style="text;html=1;align=center;verticalAlign=middle;whiteSpace=wrap;rounded=0;" parent="1" vertex="1">
          <mxGeometry x="340" y="740" width="140" height="30" as="geometry" />
        </mxCell>
        <mxCell id="3QNXdqWSVSX8dj4BMd4Q-8" value="" style="endArrow=open;endFill=1;endSize=12;html=1;rounded=0;exitX=1;exitY=0.5;exitDx=0;exitDy=0;entryX=0;entryY=0.5;entryDx=0;entryDy=0;" parent="1" source="0xal0aKIqLaKwU2j3F8N-27" target="3QNXdqWSVSX8dj4BMd4Q-1" edge="1">
          <mxGeometry width="160" relative="1" as="geometry">
            <mxPoint x="300" y="580" as="sourcePoint" />
            <mxPoint x="460" y="580" as="targetPoint" />
          </mxGeometry>
        </mxCell>
        <mxCell id="Va4YTmHAn5SyPJwbnl-c-1" value="" style="endArrow=open;endFill=1;endSize=12;html=1;rounded=0;entryX=0;entryY=0.5;entryDx=0;entryDy=0;" edge="1" parent="1" target="0xal0aKIqLaKwU2j3F8N-64">
          <mxGeometry width="160" relative="1" as="geometry">
            <mxPoint x="200" y="1110" as="sourcePoint" />
            <mxPoint x="430" y="1130" as="targetPoint" />
            <Array as="points">
              <mxPoint x="200" y="1140" />
              <mxPoint x="360" y="1140" />
              <mxPoint x="360" y="1100" />
            </Array>
          </mxGeometry>
        </mxCell>
      </root>
    </mxGraphModel>
  </diagram>
</mxfile>
